<?xml version="1.0" encoding="utf-8"?>
<svg version="1.1" xmlns:xlink="http://www.w3.org/1999/xlink" width="12px" height="12px" viewBox="608 502.5  12 12" xmlns="http://www.w3.org/2000/svg">
  <path d="M 614 502.5  C 617.36 502.5  620 505.14  620 508.5  C 620 511.86  617.36 514.5  614 514.5  C 610.64 514.5  608 511.86  608 508.5  C 608 505.14  610.64 502.5  614 502.5  Z " fill-rule="nonzero" fill="#d7d7d7" stroke="none" />
  <path d="M 614 503  C 617.08 503  619.5 505.42  619.5 508.5  C 619.5 511.58  617.08 514  614 514  C 610.92 514  608.5 511.58  608.5 508.5  C 608.5 505.42  610.92 503  614 503  Z " stroke-width="1" stroke="#797979" fill="none" />
  <path d="M 614 511.5  C 612.32 511.5  611 510.18  611 508.5  C 611 506.82  612.32 505.5  614 505.5  C 615.68 505.5  617 506.82  617 508.5  C 617 510.18  615.68 511.5  614 511.5  " fill-rule="nonzero" fill="#797979" stroke="none" />
</svg>