<?xml version="1.0" encoding="utf-8"?>
<svg version="1.1" xmlns:xlink="http://www.w3.org/1999/xlink" width="30px" height="30px" xmlns="http://www.w3.org/2000/svg">
  <g transform="matrix(1 0 0 1 -481 -190 )">
    <path d="M 496 190  C 504.4 190  511 196.6  511 205  C 511 213.4  504.4 220  496 220  C 487.6 220  481 213.4  481 205  C 481 196.6  487.6 190  496 190  Z " fill-rule="nonzero" fill="#d7d7d7" stroke="none" />
    <path d="M 496 190.5  C 504.12 190.5  510.5 196.88  510.5 205  C 510.5 213.12  504.12 219.5  496 219.5  C 487.88 219.5  481.5 213.12  481.5 205  C 481.5 196.88  487.88 190.5  496 190.5  Z " stroke-width="1" stroke="#797979" fill="none" />
  </g>
</svg>