<?xml version="1.0" encoding="utf-8"?>
<svg version="1.1" xmlns:xlink="http://www.w3.org/1999/xlink" width="30px" height="30px" xmlns="http://www.w3.org/2000/svg">
  <g transform="matrix(1 0 0 1 -671 -190 )">
    <path d="M 686 190  C 694.4 190  701 196.6  701 205  C 701 213.4  694.4 220  686 220  C 677.6 220  671 213.4  671 205  C 671 196.6  677.6 190  686 190  Z " fill-rule="nonzero" fill="#ffffff" stroke="none" />
    <path d="M 686 190.5  C 694.12 190.5  700.5 196.88  700.5 205  C 700.5 213.12  694.12 219.5  686 219.5  C 677.88 219.5  671.5 213.12  671.5 205  C 671.5 196.88  677.88 190.5  686 190.5  Z " stroke-width="1" stroke="#797979" fill="none" />
  </g>
</svg>