<?xml version="1.0" encoding="utf-8"?>
<svg version="1.1" xmlns:xlink="http://www.w3.org/1999/xlink" width="12px" height="12px" viewBox="780 318  12 12" xmlns="http://www.w3.org/2000/svg">
  <path d="M 786 318  C 789.36 318  792 320.64  792 324  C 792 327.36  789.36 330  786 330  C 782.64 330  780 327.36  780 324  C 780 320.64  782.64 318  786 318  Z " fill-rule="nonzero" fill="#ffffff" stroke="none" />
  <path d="M 786 318.5  C 789.08 318.5  791.5 320.92  791.5 324  C 791.5 327.08  789.08 329.5  786 329.5  C 782.92 329.5  780.5 327.08  780.5 324  C 780.5 320.92  782.92 318.5  786 318.5  Z " stroke-width="1" stroke="#797979" fill="none" />
  <path d="M 786 327  C 784.32 327  783 325.68  783 324  C 783 322.32  784.32 321  786 321  C 787.68 321  789 322.32  789 324  C 789 325.68  787.68 327  786 327  " fill-rule="nonzero" fill="#797979" stroke="none" />
</svg>