<?xml version="1.0" encoding="utf-8"?>
<svg version="1.1" xmlns:xlink="http://www.w3.org/1999/xlink" width="12px" height="12px" viewBox="613 318  12 12" xmlns="http://www.w3.org/2000/svg">
  <path d="M 619 318  C 622.36 318  625 320.64  625 324  C 625 327.36  622.36 330  619 330  C 615.64 330  613 327.36  613 324  C 613 320.64  615.64 318  619 318  Z " fill-rule="nonzero" fill="#ffffff" stroke="none" />
  <path d="M 619 318.5  C 622.08 318.5  624.5 320.92  624.5 324  C 624.5 327.08  622.08 329.5  619 329.5  C 615.92 329.5  613.5 327.08  613.5 324  C 613.5 320.92  615.92 318.5  619 318.5  Z " stroke-width="1" stroke="#797979" fill="none" />
  <path d="M 619 327  C 617.32 327  616 325.68  616 324  C 616 322.32  617.32 321  619 321  C 620.68 321  622 322.32  622 324  C 622 325.68  620.68 327  619 327  " fill-rule="nonzero" fill="#797979" stroke="none" />
</svg>