<?xml version="1.0" encoding="utf-8"?>
<svg version="1.1" xmlns:xlink="http://www.w3.org/1999/xlink" width="24px" height="20px" xmlns="http://www.w3.org/2000/svg">
  <g transform="matrix(1 0 0 1 -60 -389 )">
    <path d="M 14.21875 17.8943452380952  C 14.40625 17.7604166666667  14.5 17.5694444444444  14.5 17.3214285714286  L 14.5 16.4880952380952  L 14.5 9.52380952380952  L 14.5 6.66666666666667  L 9.5 6.66666666666667  L 9.5 9.52380952380952  L 9.5 16.4880952380952  L 9.5 17.3214285714286  C 9.5 17.5694444444444  9.59375 17.7604166666667  9.78125 17.8943452380952  C 9.96875 18.0282738095238  10.2083333333333 18.0952380952381  10.5 18.0952380952381  L 13.5 18.0952380952381  C 13.7916666666667 18.0952380952381  14.03125 18.0282738095238  14.21875 17.8943452380952  Z M 6.3125 4.34523809523809  C 6.60416666666667 4.62301587301587  6.95833333333333 4.76190476190476  7.375 4.76190476190476  L 10.421875 4.76190476190476  L 8.453125 2.36607142857143  C 8.18229166666667 2.05853174603174  7.82291666666667 1.9047619047619  7.375 1.9047619047619  C 6.95833333333333 1.9047619047619  6.60416666666667 2.04365079365079  6.3125 2.32142857142857  C 6.02083333333333 2.59920634920635  5.875 2.93650793650794  5.875 3.33333333333333  C 5.875 3.73015873015873  6.02083333333333 4.06746031746032  6.3125 4.34523809523809  Z M 17.6875 4.34523809523809  C 17.9791666666667 4.06746031746032  18.125 3.73015873015873  18.125 3.33333333333333  C 18.125 2.93650793650794  17.9791666666667 2.59920634920635  17.6875 2.32142857142857  C 17.3958333333333 2.04365079365079  17.0416666666667 1.9047619047619  16.625 1.9047619047619  C 16.1770833333333 1.9047619047619  15.8177083333333 2.05853174603174  15.546875 2.36607142857143  L 13.59375 4.76190476190476  L 16.625 4.76190476190476  C 17.0416666666667 4.76190476190476  17.3958333333333 4.62301587301587  17.6875 4.34523809523809  Z M 23.859375 6.80059523809524  C 23.953125 6.88988095238095  24 7.00396825396825  24 7.14285714285714  L 24 11.9047619047619  C 24 12.0436507936508  23.953125 12.1577380952381  23.859375 12.2470238095238  C 23.765625 12.3363095238095  23.6458333333333 12.3809523809524  23.5 12.3809523809524  L 22 12.3809523809524  L 22 18.5714285714286  C 22 18.968253968254  21.8541666666667 19.3055555555556  21.5625 19.5833333333333  C 21.2708333333333 19.8611111111111  20.9166666666667 20  20.5 20  L 3.5 20  C 3.08333333333333 20  2.72916666666667 19.8611111111111  2.4375 19.5833333333333  C 2.14583333333333 19.3055555555556  2 18.968253968254  2 18.5714285714286  L 2 12.3809523809524  L 0.5 12.3809523809524  C 0.354166666666667 12.3809523809524  0.234375 12.3363095238095  0.140625 12.2470238095238  C 0.046875 12.1577380952381  0 12.0436507936508  0 11.9047619047619  L 0 7.14285714285714  C 0 7.00396825396825  0.046875 6.88988095238095  0.140625 6.80059523809524  C 0.234375 6.71130952380952  0.354166666666667 6.66666666666667  0.5 6.66666666666667  L 7.375 6.66666666666667  C 6.40625 6.66666666666667  5.58072916666667 6.34176587301587  4.8984375 5.69196428571429  C 4.21614583333333 5.0421626984127  3.875 4.25595238095238  3.875 3.33333333333333  C 3.875 2.41071428571429  4.21614583333333 1.62450396825397  4.8984375 0.974702380952381  C 5.58072916666667 0.324900793650793  6.40625 0  7.375 0  C 8.48958333333333 0  9.36458333333333 0.381944444444442  10 1.14583333333333  L 12 3.60119047619048  L 14 1.14583333333333  C 14.6354166666667 0.381944444444442  15.5104166666667 0  16.625 0  C 17.59375 0  18.4192708333333 0.324900793650793  19.1015625 0.974702380952381  C 19.7838541666667 1.62450396825397  20.125 2.41071428571429  20.125 3.33333333333333  C 20.125 4.25595238095238  19.7838541666667 5.0421626984127  19.1015625 5.69196428571429  C 18.4192708333333 6.34176587301587  17.59375 6.66666666666667  16.625 6.66666666666667  L 23.5 6.66666666666667  C 23.6458333333333 6.66666666666667  23.765625 6.71130952380952  23.859375 6.80059523809524  Z " fill-rule="nonzero" fill="#000000" stroke="none" transform="matrix(1 0 0 1 60 389 )" />
  </g>
</svg>