<?xml version="1.0" encoding="utf-8"?>
<svg version="1.1" xmlns:xlink="http://www.w3.org/1999/xlink" width="30px" height="30px" xmlns="http://www.w3.org/2000/svg">
  <g transform="matrix(1 0 0 1 -463 -161 )">
    <path d="M 478 161  C 486.4 161  493 167.6  493 176  C 493 184.4  486.4 191  478 191  C 469.6 191  463 184.4  463 176  C 463 167.6  469.6 161  478 161  Z " fill-rule="nonzero" fill="#d7d7d7" stroke="none" />
    <path d="M 478 161.5  C 486.12 161.5  492.5 167.88  492.5 176  C 492.5 184.12  486.12 190.5  478 190.5  C 469.88 190.5  463.5 184.12  463.5 176  C 463.5 167.88  469.88 161.5  478 161.5  Z " stroke-width="1" stroke="#797979" fill="none" />
  </g>
</svg>