<?xml version="1.0" encoding="utf-8"?>
<svg version="1.1" xmlns:xlink="http://www.w3.org/1999/xlink" width="30px" height="30px" xmlns="http://www.w3.org/2000/svg">
  <g transform="matrix(1 0 0 1 -673 -161 )">
    <path d="M 688 161  C 696.4 161  703 167.6  703 176  C 703 184.4  696.4 191  688 191  C 679.6 191  673 184.4  673 176  C 673 167.6  679.6 161  688 161  Z " fill-rule="nonzero" fill="#ffffff" stroke="none" />
    <path d="M 688 161.5  C 696.12 161.5  702.5 167.88  702.5 176  C 702.5 184.12  696.12 190.5  688 190.5  C 679.88 190.5  673.5 184.12  673.5 176  C 673.5 167.88  679.88 161.5  688 161.5  Z " stroke-width="1" stroke="#797979" fill="none" />
  </g>
</svg>