<?xml version="1.0" encoding="utf-8"?>
<svg version="1.1" xmlns:xlink="http://www.w3.org/1999/xlink" width="50px" height="50px" xmlns="http://www.w3.org/2000/svg">
  <g transform="matrix(1 0 0 1 -495 -661 )">
    <path d="M 520 661  C 534 661  545 672  545 686  C 545 700  534 711  520 711  C 506 711  495 700  495 686  C 495 672  506 661  520 661  Z " fill-rule="nonzero" fill="#ffffff" stroke="none" />
    <path d="M 520 661.5  C 533.72 661.5  544.5 672.28  544.5 686  C 544.5 699.72  533.72 710.5  520 710.5  C 506.28 710.5  495.5 699.72  495.5 686  C 495.5 672.28  506.28 661.5  520 661.5  Z " stroke-width="1" stroke="#797979" fill="none" />
  </g>
</svg>