<?xml version="1.0" encoding="utf-8"?>
<svg version="1.1" xmlns:xlink="http://www.w3.org/1999/xlink" width="10px" height="10px" xmlns="http://www.w3.org/2000/svg">
  <g transform="matrix(1 0 0 1 -80 -321 )">
    <path d="M 85 321  C 87.8 321  90 323.2  90 326  C 90 328.8  87.8 331  85 331  C 82.2 331  80 328.8  80 326  C 80 323.2  82.2 321  85 321  Z " fill-rule="nonzero" fill="#d7d7d7" stroke="none" />
    <path d="M 85 321.5  C 87.52 321.5  89.5 323.48  89.5 326  C 89.5 328.52  87.52 330.5  85 330.5  C 82.48 330.5  80.5 328.52  80.5 326  C 80.5 323.48  82.48 321.5  85 321.5  Z " stroke-width="1" stroke="#d7d7d7" fill="none" />
  </g>
</svg>