<?xml version="1.0" encoding="utf-8"?>
<svg version="1.1" xmlns:xlink="http://www.w3.org/1999/xlink" width="15px" height="7px" xmlns="http://www.w3.org/2000/svg">
  <defs>
    <mask fill="white" id="clip249">
      <path d="M 14.7216796875 0.230902777777778  C 14.9072265625 0.384837962962962  15 0.567129629629629  15 0.777777777777778  C 15 0.988425925925926  14.9072265625 1.17071759259259  14.7216796875 1.32465277777778  L 8.1591796875 6.76909722222222  C 7.9736328125 6.92303240740741  7.75390625 7  7.5 7  C 7.24609375 7  7.0263671875 6.92303240740741  6.8408203125 6.76909722222222  L 0.2783203125 1.32465277777778  C 0.0927734375 1.17071759259259  0 0.988425925925926  0 0.777777777777778  C 0 0.567129629629629  0.0927734375 0.384837962962962  0.2783203125 0.230902777777778  C 0.4638671875 0.0769675925925917  0.68359375 0  0.9375 0  L 14.0625 0  C 14.31640625 0  14.5361328125 0.0769675925925917  14.7216796875 0.230902777777778  Z " fill-rule="evenodd" />
    </mask>
  </defs>
  <g transform="matrix(1 0 0 1 -707 -556 )">
    <path d="M 14.7216796875 0.230902777777778  C 14.9072265625 0.384837962962962  15 0.567129629629629  15 0.777777777777778  C 15 0.988425925925926  14.9072265625 1.17071759259259  14.7216796875 1.32465277777778  L 8.1591796875 6.76909722222222  C 7.9736328125 6.92303240740741  7.75390625 7  7.5 7  C 7.24609375 7  7.0263671875 6.92303240740741  6.8408203125 6.76909722222222  L 0.2783203125 1.32465277777778  C 0.0927734375 1.17071759259259  0 0.988425925925926  0 0.777777777777778  C 0 0.567129629629629  0.0927734375 0.384837962962962  0.2783203125 0.230902777777778  C 0.4638671875 0.0769675925925917  0.68359375 0  0.9375 0  L 14.0625 0  C 14.31640625 0  14.5361328125 0.0769675925925917  14.7216796875 0.230902777777778  Z " fill-rule="nonzero" fill="#333333" stroke="none" transform="matrix(1 0 0 1 707 556 )" />
    <path d="M 14.7216796875 0.230902777777778  C 14.9072265625 0.384837962962962  15 0.567129629629629  15 0.777777777777778  C 15 0.988425925925926  14.9072265625 1.17071759259259  14.7216796875 1.32465277777778  L 8.1591796875 6.76909722222222  C 7.9736328125 6.92303240740741  7.75390625 7  7.5 7  C 7.24609375 7  7.0263671875 6.92303240740741  6.8408203125 6.76909722222222  L 0.2783203125 1.32465277777778  C 0.0927734375 1.17071759259259  0 0.988425925925926  0 0.777777777777778  C 0 0.567129629629629  0.0927734375 0.384837962962962  0.2783203125 0.230902777777778  C 0.4638671875 0.0769675925925917  0.68359375 0  0.9375 0  L 14.0625 0  C 14.31640625 0  14.5361328125 0.0769675925925917  14.7216796875 0.230902777777778  Z " stroke-width="2" stroke="#797979" fill="none" transform="matrix(1 0 0 1 707 556 )" mask="url(#clip249)" />
  </g>
</svg>