<?xml version="1.0" encoding="utf-8"?>
<svg version="1.1" xmlns:xlink="http://www.w3.org/1999/xlink" width="30px" height="30px" xmlns="http://www.w3.org/2000/svg">
  <g transform="matrix(1 0 0 1 -575 -150 )">
    <path d="M 590 150  C 598.4 150  605 156.6  605 165  C 605 173.4  598.4 180  590 180  C 581.6 180  575 173.4  575 165  C 575 156.6  581.6 150  590 150  Z " fill-rule="nonzero" fill="#ffffff" stroke="none" />
    <path d="M 590 150.5  C 598.12 150.5  604.5 156.88  604.5 165  C 604.5 173.12  598.12 179.5  590 179.5  C 581.88 179.5  575.5 173.12  575.5 165  C 575.5 156.88  581.88 150.5  590 150.5  Z " stroke-width="1" stroke="#797979" fill="none" />
  </g>
</svg>