<?xml version="1.0" encoding="utf-8"?>
<svg version="1.1" xmlns:xlink="http://www.w3.org/1999/xlink" width="51px" height="39px" xmlns="http://www.w3.org/2000/svg">
  <g transform="matrix(1 0 0 1 -423 -736 )">
    <path d="M 423 736  L 474 736  L 474 775  L 423 775  L 423 736  " fill-rule="nonzero" fill="#cccccc" stroke="none" />
    <path d="M 426 739  L 471 739  L 471 772  L 426 772  L 426 739  " fill-rule="nonzero" fill="#ffffff" stroke="none" />
    <path d="M 452.445 747.7  C 450.807 747.7  449.52 746.413  449.52 744.775  C 449.52 743.137  450.807 741.85  452.445 741.85  C 454.083 741.85  455.37 743.137  455.37 744.775  C 455.37 746.413  454.083 747.7  452.445 747.7  " fill-rule="nonzero" fill="#cccccc" stroke="none" />
    <path d="M 427 771  L 427 753.95  L 437.75 746.2  L 452.8 756.776470588235  L 461.4 750.85  L 470 756.776470588235  L 470 771  L 427 771  " fill-rule="nonzero" fill="#169bd5" stroke="none" />
  </g>
</svg>