<?xml version="1.0" encoding="utf-8"?>
<svg version="1.1" xmlns:xlink="http://www.w3.org/1999/xlink" width="16px" height="16px" xmlns="http://www.w3.org/2000/svg">
  <g transform="matrix(1 0 0 1 -441 -767 )">
    <path d="M 449 767  C 453.48 767  457 770.52  457 775  C 457 779.48  453.48 783  449 783  C 444.52 783  441 779.48  441 775  C 441 770.52  444.52 767  449 767  Z " fill-rule="nonzero" fill="#ffffff" stroke="none" />
    <path d="M 449 767.5  C 453.2 767.5  456.5 770.8  456.5 775  C 456.5 779.2  453.2 782.5  449 782.5  C 444.8 782.5  441.5 779.2  441.5 775  C 441.5 770.8  444.8 767.5  449 767.5  Z " stroke-width="1" stroke="#797979" fill="none" />
  </g>
</svg>