<?xml version="1.0" encoding="utf-8"?>
<svg version="1.1" xmlns:xlink="http://www.w3.org/1999/xlink" width="20px" height="20px" xmlns="http://www.w3.org/2000/svg">
  <g transform="matrix(1 0 0 1 -978 -435 )">
    <path d="M 988 435  C 993.6 435  998 439.4  998 445  C 998 450.6  993.6 455  988 455  C 982.4 455  978 450.6  978 445  C 978 439.4  982.4 435  988 435  Z " fill-rule="nonzero" fill="#e4e4e4" stroke="none" />
    <path d="M 988 435.5  C 993.32 435.5  997.5 439.68  997.5 445  C 997.5 450.32  993.32 454.5  988 454.5  C 982.68 454.5  978.5 450.32  978.5 445  C 978.5 439.68  982.68 435.5  988 435.5  Z " stroke-width="1" stroke="#797979" fill="none" />
  </g>
</svg>