<?xml version="1.0" encoding="utf-8"?>
<svg version="1.1" xmlns:xlink="http://www.w3.org/1999/xlink" width="15px" height="7px" xmlns="http://www.w3.org/2000/svg">
  <defs>
    <mask fill="white" id="clip224">
      <path d="M 14.7216796875 5.67534722222222  C 14.9072265625 5.8292824074074  15 6.01157407407407  15 6.22222222222222  C 15 6.43287037037037  14.9072265625 6.61516203703704  14.7216796875 6.76909722222222  C 14.5361328125 6.92303240740741  14.31640625 7  14.0625 7  L 0.9375 7  C 0.68359375 7  0.4638671875 6.92303240740741  0.2783203125 6.76909722222222  C 0.0927734375 6.61516203703704  0 6.43287037037037  0 6.22222222222222  C 0 6.01157407407407  0.0927734375 5.8292824074074  0.2783203125 5.67534722222222  L 6.8408203125 0.230902777777778  C 7.0263671875 0.0769675925925917  7.24609375 0  7.5 0  C 7.75390625 0  7.9736328125 0.0769675925925917  8.1591796875 0.230902777777778  L 14.7216796875 5.67534722222222  Z " fill-rule="evenodd" />
    </mask>
  </defs>
  <g transform="matrix(1 0 0 1 -707 -556 )">
    <path d="M 14.7216796875 5.67534722222222  C 14.9072265625 5.8292824074074  15 6.01157407407407  15 6.22222222222222  C 15 6.43287037037037  14.9072265625 6.61516203703704  14.7216796875 6.76909722222222  C 14.5361328125 6.92303240740741  14.31640625 7  14.0625 7  L 0.9375 7  C 0.68359375 7  0.4638671875 6.92303240740741  0.2783203125 6.76909722222222  C 0.0927734375 6.61516203703704  0 6.43287037037037  0 6.22222222222222  C 0 6.01157407407407  0.0927734375 5.8292824074074  0.2783203125 5.67534722222222  L 6.8408203125 0.230902777777778  C 7.0263671875 0.0769675925925917  7.24609375 0  7.5 0  C 7.75390625 0  7.9736328125 0.0769675925925917  8.1591796875 0.230902777777778  L 14.7216796875 5.67534722222222  Z " fill-rule="nonzero" fill="#333333" stroke="none" transform="matrix(1 0 0 1 707 556 )" />
    <path d="M 14.7216796875 5.67534722222222  C 14.9072265625 5.8292824074074  15 6.01157407407407  15 6.22222222222222  C 15 6.43287037037037  14.9072265625 6.61516203703704  14.7216796875 6.76909722222222  C 14.5361328125 6.92303240740741  14.31640625 7  14.0625 7  L 0.9375 7  C 0.68359375 7  0.4638671875 6.92303240740741  0.2783203125 6.76909722222222  C 0.0927734375 6.61516203703704  0 6.43287037037037  0 6.22222222222222  C 0 6.01157407407407  0.0927734375 5.8292824074074  0.2783203125 5.67534722222222  L 6.8408203125 0.230902777777778  C 7.0263671875 0.0769675925925917  7.24609375 0  7.5 0  C 7.75390625 0  7.9736328125 0.0769675925925917  8.1591796875 0.230902777777778  L 14.7216796875 5.67534722222222  Z " stroke-width="2" stroke="#797979" fill="none" transform="matrix(1 0 0 1 707 556 )" mask="url(#clip224)" />
  </g>
</svg>