<?xml version="1.0" encoding="utf-8"?>
<svg version="1.1" xmlns:xlink="http://www.w3.org/1999/xlink" width="12px" height="12px" viewBox="558 314.5  12 12" xmlns="http://www.w3.org/2000/svg">
  <path d="M 564 314.5  C 567.36 314.5  570 317.14  570 320.5  C 570 323.86  567.36 326.5  564 326.5  C 560.64 326.5  558 323.86  558 320.5  C 558 317.14  560.64 314.5  564 314.5  Z " fill-rule="nonzero" fill="#ffffff" stroke="none" />
  <path d="M 564 315  C 567.08 315  569.5 317.42  569.5 320.5  C 569.5 323.58  567.08 326  564 326  C 560.92 326  558.5 323.58  558.5 320.5  C 558.5 317.42  560.92 315  564 315  Z " stroke-width="1" stroke="#797979" fill="none" />
  <path d="M 564 323.5  C 562.32 323.5  561 322.18  561 320.5  C 561 318.82  562.32 317.5  564 317.5  C 565.68 317.5  567 318.82  567 320.5  C 567 322.18  565.68 323.5  564 323.5  " fill-rule="nonzero" fill="#797979" stroke="none" />
</svg>