<?xml version="1.0" encoding="utf-8"?>
<svg version="1.1" xmlns:xlink="http://www.w3.org/1999/xlink" width="20px" height="20px" xmlns="http://www.w3.org/2000/svg">
  <g transform="matrix(1 0 0 1 -987 -435 )">
    <path d="M 997 435  C 1002.6 435  1007 439.4  1007 445  C 1007 450.6  1002.6 455  997 455  C 991.4 455  987 450.6  987 445  C 987 439.4  991.4 435  997 435  Z " fill-rule="nonzero" fill="#e4e4e4" stroke="none" />
    <path d="M 997 435.5  C 1002.32 435.5  1006.5 439.68  1006.5 445  C 1006.5 450.32  1002.32 454.5  997 454.5  C 991.68 454.5  987.5 450.32  987.5 445  C 987.5 439.68  991.68 435.5  997 435.5  Z " stroke-width="1" stroke="#797979" fill="none" />
  </g>
</svg>