<?xml version="1.0" encoding="utf-8"?>
<svg version="1.1" xmlns:xlink="http://www.w3.org/1999/xlink" width="20px" height="20px" xmlns="http://www.w3.org/2000/svg">
  <g transform="matrix(1 0 0 1 -987 -530 )">
    <path d="M 997 530  C 1002.6 530  1007 534.4  1007 540  C 1007 545.6  1002.6 550  997 550  C 991.4 550  987 545.6  987 540  C 987 534.4  991.4 530  997 530  Z " fill-rule="nonzero" fill="#e4e4e4" stroke="none" />
    <path d="M 997 530.5  C 1002.32 530.5  1006.5 534.68  1006.5 540  C 1006.5 545.32  1002.32 549.5  997 549.5  C 991.68 549.5  987.5 545.32  987.5 540  C 987.5 534.68  991.68 530.5  997 530.5  Z " stroke-width="1" stroke="#797979" fill="none" />
  </g>
</svg>