<?xml version="1.0" encoding="utf-8"?>
<svg version="1.1" xmlns:xlink="http://www.w3.org/1999/xlink" width="20px" height="20px" xmlns="http://www.w3.org/2000/svg">
  <g transform="matrix(1 0 0 1 -949 -391 )">
    <path d="M 959 391  C 964.6 391  969 395.4  969 401  C 969 406.6  964.6 411  959 411  C 953.4 411  949 406.6  949 401  C 949 395.4  953.4 391  959 391  Z " fill-rule="nonzero" fill="#e4e4e4" stroke="none" />
    <path d="M 959 391.5  C 964.32 391.5  968.5 395.68  968.5 401  C 968.5 406.32  964.32 410.5  959 410.5  C 953.68 410.5  949.5 406.32  949.5 401  C 949.5 395.68  953.68 391.5  959 391.5  Z " stroke-width="1" stroke="#797979" fill="none" />
  </g>
</svg>