<?xml version="1.0" encoding="utf-8"?>
<svg version="1.1" xmlns:xlink="http://www.w3.org/1999/xlink" width="8px" height="8px" xmlns="http://www.w3.org/2000/svg">
  <g transform="matrix(1 0 0 1 -873 -267 )">
    <path d="M 877 267  C 879.24 267  881 268.76  881 271  C 881 273.24  879.24 275  877 275  C 874.76 275  873 273.24  873 271  C 873 268.76  874.76 267  877 267  Z " fill-rule="nonzero" fill="#aaaaaa" stroke="none" />
    <path d="M 877 267.5  C 878.96 267.5  880.5 269.04  880.5 271  C 880.5 272.96  878.96 274.5  877 274.5  C 875.04 274.5  873.5 272.96  873.5 271  C 873.5 269.04  875.04 267.5  877 267.5  Z " stroke-width="1" stroke="#797979" fill="none" />
  </g>
</svg>