<?xml version="1.0" encoding="utf-8"?>
<svg version="1.1" xmlns:xlink="http://www.w3.org/1999/xlink" width="8px" height="8px" xmlns="http://www.w3.org/2000/svg">
  <g transform="matrix(1 0 0 1 -874 -393 )">
    <path d="M 878 393  C 880.24 393  882 394.76  882 397  C 882 399.24  880.24 401  878 401  C 875.76 401  874 399.24  874 397  C 874 394.76  875.76 393  878 393  Z " fill-rule="nonzero" fill="#f2f2f2" stroke="none" />
    <path d="M 878 393.5  C 879.96 393.5  881.5 395.04  881.5 397  C 881.5 398.96  879.96 400.5  878 400.5  C 876.04 400.5  874.5 398.96  874.5 397  C 874.5 395.04  876.04 393.5  878 393.5  Z " stroke-width="1" stroke="#797979" fill="none" />
  </g>
</svg>