<?xml version="1.0" encoding="utf-8"?>
<svg version="1.1" xmlns:xlink="http://www.w3.org/1999/xlink" width="10px" height="10px" xmlns="http://www.w3.org/2000/svg">
  <g transform="matrix(1 0 0 1 -75 -321 )">
    <path d="M 80 321  C 82.8 321  85 323.2  85 326  C 85 328.8  82.8 331  80 331  C 77.2 331  75 328.8  75 326  C 75 323.2  77.2 321  80 321  Z " fill-rule="nonzero" fill="#d7d7d7" stroke="none" />
    <path d="M 80 321.5  C 82.52 321.5  84.5 323.48  84.5 326  C 84.5 328.52  82.52 330.5  80 330.5  C 77.48 330.5  75.5 328.52  75.5 326  C 75.5 323.48  77.48 321.5  80 321.5  Z " stroke-width="1" stroke="#d7d7d7" fill="none" />
  </g>
</svg>