<?xml version="1.0" encoding="utf-8"?>
<svg version="1.1" xmlns:xlink="http://www.w3.org/1999/xlink" width="12px" height="10px" xmlns="http://www.w3.org/2000/svg">
  <g transform="matrix(1 0 0 1 -1165 -346 )">
    <path d="M 11.7832258064516 1.38047138047138  C 11.9277419354839 1.53759820426487  12 1.72839506172839  12 1.95286195286195  C 12 2.17732884399551  11.9277419354839 2.36812570145903  11.7832258064516 2.52525252525253  L 6.17806451612903 8.61952861952862  L 5.12516129032258 9.76430976430976  C 4.98064516129032 9.92143658810325  4.80516129032258 10  4.59870967741935 10  C 4.39225806451613 10  4.21677419354839 9.92143658810325  4.07225806451613 9.76430976430976  L 3.01935483870968 8.61952861952862  L 0.216774193548387 5.57239057239057  C 0.0722580645161291 5.41526374859708  0 5.22446689113356  0 5  C 0 4.77553310886644  0.0722580645161291 4.58473625140292  0.216774193548387 4.42760942760943  L 1.26967741935484 3.28282828282828  C 1.4141935483871 3.12570145903479  1.58967741935484 3.04713804713805  1.79612903225806 3.04713804713805  C 2.00258064516129 3.04713804713805  2.17806451612903 3.12570145903479  2.32258064516129 3.28282828282828  L 4.59870967741935 5.76599326599327  L 9.67741935483871 0.235690235690236  C 9.82193548387097 0.0785634118967449  9.99741935483871 0  10.2038709677419 0  C 10.4103225806452 0  10.5858064516129 0.0785634118967449  10.7303225806452 0.235690235690236  L 11.7832258064516 1.38047138047138  Z " fill-rule="nonzero" fill="#ffffff" stroke="none" transform="matrix(1 0 0 1 1165 346 )" />
  </g>
</svg>