<?xml version="1.0" encoding="utf-8"?>
<svg version="1.1" xmlns:xlink="http://www.w3.org/1999/xlink" width="31px" height="33px" xmlns="http://www.w3.org/2000/svg">
  <g transform="matrix(1 0 0 1 -1376 -124 )">
    <path d="M 29.3753255208333 10.9669471153846  C 30.4584418402778 13.0955528846154  31 15.3629807692308  31 17.7692307692308  C 31 19.8317307692308  30.5896267361111 21.8016826923077  29.7688802083333 23.6790865384615  C 28.9481336805556 25.5564903846154  27.8448350694444 27.1760817307692  26.458984375 28.5378605769231  C 25.0731336805556 29.8996394230769  23.4249131944444 30.9837740384615  21.5143229166667 31.7902644230769  C 19.6037326388889 32.5967548076923  17.5989583333333 33  15.5 33  C 13.4010416666667 33  11.3962673611111 32.5967548076923  9.48567708333333 31.7902644230769  C 7.57508680555556 30.9837740384615  5.92686631944445 29.8996394230769  4.541015625 28.5378605769231  C 3.15516493055556 27.1760817307692  2.05186631944444 25.5564903846154  1.23111979166667 23.6790865384615  C 0.410373263888889 21.8016826923077  0 19.8317307692308  0 17.7692307692308  C 0 15.3629807692308  0.541558159722222 13.0955528846154  1.62467447916667 10.9669471153846  C 2.70779079861111 8.83834134615384  4.23155381944445 7.05348557692307  6.19596354166667 5.61237980769231  C 6.77452256944445 5.18930288461538  7.4169921875 5.02403846153846  8.12337239583333 5.11658653846154  C 8.82975260416667 5.20913461538461  9.39149305555556 5.53966346153846  9.80859375 6.10817307692308  C 10.2391493055556 6.66346153846154  10.4039713541667 7.28816105769231  10.3030598958333 7.98227163461539  C 10.2021484375 8.67638221153846  9.869140625 9.23497596153846  9.30403645833333 9.65805288461539  C 7.98546006944444 10.6364182692308  6.96625434027778 11.8329326923077  6.24641927083333 13.2475961538462  C 5.52658420138889 14.6622596153846  5.16666666666667 16.1694711538462  5.16666666666667 17.7692307692308  C 5.16666666666667 19.1442307692308  5.43912760416667 20.4564302884615  5.98404947916667 21.7058293269231  C 6.52897135416667 22.9552283653846  7.265625 24.0360576923077  8.19401041666667 24.9483173076923  C 9.12239583333333 25.8605769230769  10.2223307291667 26.5844350961538  11.4938151041667 27.1198918269231  C 12.7652994791667 27.6553485576923  14.1006944444444 27.9230769230769  15.5 27.9230769230769  C 16.8993055555556 27.9230769230769  18.2347005208333 27.6553485576923  19.5061848958333 27.1198918269231  C 20.7776692708333 26.5844350961538  21.8776041666667 25.8605769230769  22.8059895833333 24.9483173076923  C 23.734375 24.0360576923077  24.4710286458333 22.9552283653846  25.0159505208333 21.7058293269231  C 25.5608723958333 20.4564302884615  25.8333333333333 19.1442307692308  25.8333333333333 17.7692307692308  C 25.8333333333333 16.1694711538462  25.4734157986111 14.6622596153846  24.7535807291667 13.2475961538462  C 24.0337456597222 11.8329326923077  23.0145399305556 10.6364182692308  21.6959635416667 9.65805288461539  C 21.130859375 9.23497596153846  20.7978515625 8.67638221153846  20.6969401041667 7.98227163461539  C 20.5960286458333 7.28816105769231  20.7608506944444 6.66346153846154  21.19140625 6.10817307692308  C 21.6085069444444 5.53966346153846  22.1736111111111 5.20913461538461  22.88671875 5.11658653846154  C 23.5998263888889 5.02403846153846  24.2389322916667 5.18930288461538  24.8040364583333 5.61237980769231  C 26.7684461805556 7.05348557692307  28.2922092013889 8.83834134615384  29.3753255208333 10.9669471153846  Z M 17.31640625 0.753605769230768  C 17.8276909722222 1.25600961538461  18.0833333333333 1.85096153846154  18 2.53846153846154  L 18 15.2307692307692  C 18.0833333333333 15.9182692307692  17.8276909722222 16.5132211538462  17.31640625 17.015625  C 16.8051215277778 17.5180288461538  16.1996527777778 17.7692307692308  15.5 17.7692307692308  C 14.8003472222222 17.7692307692308  14.1948784722222 17.5180288461538  13.68359375 17.015625  C 13.1723090277778 16.5132211538462  12.9166666666667 15.9182692307692  13 15.2307692307692  L 13 2.53846153846154  C 12.9166666666667 1.85096153846154  13.1723090277778 1.25600961538461  13.68359375 0.753605769230768  C 14.1948784722222 0.251201923076924  14.8003472222222 0  15.5 0  C 16.1996527777778 0  16.8051215277778 0.251201923076924  17.31640625 0.753605769230768  Z " fill-rule="nonzero" fill="#000000" stroke="none" transform="matrix(1 0 0 1 1376 124 )" />
  </g>
</svg>