<?xml version="1.0" encoding="utf-8"?>
<svg version="1.1" xmlns:xlink="http://www.w3.org/1999/xlink" width="32px" height="32px" xmlns="http://www.w3.org/2000/svg">
  <g transform="matrix(1 0 0 1 -2015 -125 )">
    <path d="M 24 14.8541666666667  C 24.4444444444444 15.1041666666667  24.6666666666667 15.4861111111111  24.6666666666667 16  C 24.6666666666667 16.5138888888889  24.4444444444444 16.8958333333333  24 17.1458333333333  L 12.6666666666667 23.8125  C 12.4583333333333 23.9375  12.2361111111111 24  12 24  C 11.7777777777778 24  11.5555555555556 23.9444444444444  11.3333333333333 23.8333333333333  C 10.8888888888889 23.5694444444444  10.6666666666667 23.1805555555556  11 22.6666666666667  L 11 9.33333333333333  C 10.6666666666667 8.81944444444444  10.8888888888889 8.43055555555555  11.3333333333333 8.16666666666667  C 11.7916666666667 7.91666666666667  12.2361111111111 7.92361111111111  12.6666666666667 8.1875  L 24 14.8541666666667  Z M 25.8125 21.6875  C 26.8263888888889 19.9513888888889  27.3333333333333 18.0555555555556  27.3333333333333 16  C 27.3333333333333 13.9444444444444  26.8263888888889 12.0486111111111  25.8125 10.3125  C 24.7986111111111 8.57638888888889  23.4236111111111 7.20138888888889  21.6875 6.1875  C 19.9513888888889 5.17361111111111  18.0555555555556 4.66666666666667  16 4.66666666666667  C 13.9444444444444 4.66666666666667  12.0486111111111 5.17361111111111  10.3125 6.1875  C 8.57638888888889 7.20138888888889  7.20138888888889 8.57638888888889  6.1875 10.3125  C 5.17361111111111 12.0486111111111  4.66666666666667 13.9444444444444  4.66666666666667 16  C 4.66666666666667 18.0555555555556  5.17361111111111 19.9513888888889  6.1875 21.6875  C 7.20138888888889 23.4236111111111  8.57638888888889 24.7986111111111  10.3125 25.8125  C 12.0486111111111 26.8263888888889  13.9444444444444 27.3333333333333  16 27.3333333333333  C 18.0555555555556 27.3333333333333  19.9513888888889 26.8263888888889  21.6875 25.8125  C 23.4236111111111 24.7986111111111  24.7986111111111 23.4236111111111  25.8125 21.6875  Z M 29.8541666666667 7.96875  C 31.2847222222222 10.4201388888889  32 13.0972222222222  32 16  C 32 18.9027777777778  31.2847222222222 21.5798611111111  29.8541666666667 24.03125  C 28.4236111111111 26.4826388888889  26.4826388888889 28.4236111111111  24.03125 29.8541666666667  C 21.5798611111111 31.2847222222222  18.9027777777778 32  16 32  C 13.0972222222222 32  10.4201388888889 31.2847222222222  7.96875 29.8541666666667  C 5.51736111111111 28.4236111111111  3.57638888888889 26.4826388888889  2.14583333333333 24.03125  C 0.715277777777778 21.5798611111111  0 18.9027777777778  0 16  C 0 13.0972222222222  0.715277777777778 10.4201388888889  2.14583333333333 7.96875  C 3.57638888888889 5.51736111111111  5.51736111111111 3.57638888888889  7.96875 2.14583333333333  C 10.4201388888889 0.715277777777775  13.0972222222222 0  16 0  C 18.9027777777778 0  21.5798611111111 0.715277777777775  24.03125 2.14583333333333  C 26.4826388888889 3.57638888888889  28.4236111111111 5.51736111111111  29.8541666666667 7.96875  Z " fill-rule="nonzero" fill="#000000" stroke="none" transform="matrix(1 0 0 1 2015 125 )" />
  </g>
</svg>