<?xml version="1.0" encoding="utf-8"?>
<svg version="1.1" xmlns:xlink="http://www.w3.org/1999/xlink" width="24px" height="24px" xmlns="http://www.w3.org/2000/svg">
  <g transform="matrix(1 0 0 1 -2130 -194 )">
    <path d="M 19.828125 15.3017521090201  C 20.2760416666667 14.2478909798832  20.5 13.1447112264763  20.5 11.9922128487995  C 20.5 10.3205710577547  20.046875 8.78909798831927  19.140625 7.39779364049319  L 7.359375 19.125243348475  C 8.78645833333333 20.04931862427  10.3333333333333 20.5113562621674  12 20.5113562621674  C 13.15625 20.5113562621674  14.2578125 20.2855288773524  15.3046875 19.8338741077223  C 16.3515625 19.3822193380921  17.2552083333333 18.7774172615185  18.015625 18.0194678780013  C 18.7760416666667 17.2615184944841  19.3802083333333 16.355613238157  19.828125 15.3017521090201  Z M 3.5 11.9922128487995  C 3.5 13.6742375081116  3.96354166666667 15.2264763140818  4.890625 16.6489292667099  L 16.6875 4.90590525632706  C 15.28125 3.9610642439974  13.71875 3.48864373783258  12 3.48864373783258  C 10.4583333333333 3.48864373783258  9.03645833333333 3.86761842959117  7.734375 4.62556781310837  C 6.43229166666667 5.38351719662556  5.40104166666667 6.41661258922777  4.640625 7.72485399091499  C 3.88020833333333 9.03309539260221  3.5 10.4555483452304  3.5 11.9922128487995  Z M 23.046875 7.32770927968851  C 23.6822916666667 8.80726800778715  24 10.3621025308241  24 11.9922128487995  C 24 13.6223231667748  23.6822916666667 15.1797534068786  23.046875 16.664503569111  C 22.4114583333333 18.1492537313433  21.5598958333333 19.4263465282284  20.4921875 20.4957819597664  C 19.4244791666667 21.5652173913043  18.1484375 22.4166125892278  16.6640625 23.0499675535367  C 15.1796875 23.6833225178456  13.625 24  12 24  C 10.375 24  8.8203125 23.6833225178456  7.3359375 23.0499675535367  C 5.8515625 22.4166125892278  4.57552083333333 21.5652173913043  3.5078125 20.4957819597664  C 2.44010416666667 19.4263465282284  1.58854166666667 18.1492537313433  0.953125 16.664503569111  C 0.317708333333333 15.1797534068786  0 13.6223231667748  0 11.9922128487995  C 0 10.3621025308241  0.317708333333333 8.80726800778715  0.953125 7.32770927968851  C 1.58854166666667 5.84815055158988  2.44010416666667 4.57365347177158  3.5078125 3.50421804023362  C 4.57552083333333 2.43478260869565  5.8515625 1.58338741077222  7.3359375 0.950032446463337  C 8.8203125 0.316677482154443  10.375 0  12 0  C 13.625 0  15.1796875 0.316677482154443  16.6640625 0.950032446463337  C 18.1484375 1.58338741077222  19.4244791666667 2.43478260869565  20.4921875 3.50421804023362  C 21.5598958333333 4.57365347177158  22.4114583333333 5.84815055158988  23.046875 7.32770927968851  Z " fill-rule="nonzero" fill="#d9001b" stroke="none" transform="matrix(1 0 0 1 2130 194 )" />
  </g>
</svg>