<?xml version="1.0" encoding="utf-8"?>
<svg version="1.1" xmlns:xlink="http://www.w3.org/1999/xlink" width="44px" height="32px" xmlns="http://www.w3.org/2000/svg">
  <defs>
    <mask fill="white" id="clip325">
      <path d="M 8.8 9.6  L 0 9.6  L 0 32  L 44 32  L 44 10  L 30.8 10  L 19.8 0  L 8.8 9.6  Z " fill-rule="evenodd" />
    </mask>
  </defs>
  <g transform="matrix(1 0 0 1 -1111 -704 )">
    <path d="M 8.8 9.6  L 0 9.6  L 0 32  L 44 32  L 44 10  L 30.8 10  L 19.8 0  L 8.8 9.6  Z " fill-rule="nonzero" fill="#ffffff" stroke="none" transform="matrix(1 0 0 1 1111 704 )" />
    <path d="M 8.8 9.6  L 0 9.6  L 0 32  L 44 32  L 44 10  L 30.8 10  L 19.8 0  L 8.8 9.6  Z " stroke-width="2" stroke="#797979" fill="none" transform="matrix(1 0 0 1 1111 704 )" mask="url(#clip325)" />
  </g>
</svg>