<?xml version="1.0" encoding="utf-8"?>
<svg version="1.1" xmlns:xlink="http://www.w3.org/1999/xlink" width="30px" height="30px" xmlns="http://www.w3.org/2000/svg">
  <g transform="matrix(1 0 0 1 -622 -341 )">
    <path d="M 637 341  C 645.4 341  652 347.6  652 356  C 652 364.4  645.4 371  637 371  C 628.6 371  622 364.4  622 356  C 622 347.6  628.6 341  637 341  Z " fill-rule="nonzero" fill="#d7d7d7" stroke="none" />
    <path d="M 637 341.5  C 645.12 341.5  651.5 347.88  651.5 356  C 651.5 364.12  645.12 370.5  637 370.5  C 628.88 370.5  622.5 364.12  622.5 356  C 622.5 347.88  628.88 341.5  637 341.5  Z " stroke-width="1" stroke="#555555" fill="none" />
  </g>
</svg>