<?xml version="1.0" encoding="utf-8"?>
<svg version="1.1" xmlns:xlink="http://www.w3.org/1999/xlink" width="8px" height="12px" xmlns="http://www.w3.org/2000/svg">
  <g transform="matrix(1 0 0 1 -746 -674 )">
    <path d="M 4.87244401168452 11.9190340909091  C 4.82310938007141 11.9730113636364  4.76468679000325 12  4.69717624148004 12  L 3.35735150925024 12  C 3.28984096072704 12  3.23141837065888 11.9744318181818  3.18208373904576 11.9232954545455  C 3.13274910743265 11.8721590909091  3.1080817916261 11.8068181818182  3.1080817916261 11.7272727272727  L 3.1080817916261 8.91477272727273  L 0.864654333008763 8.91477272727273  C 0.797143784485557 8.91477272727273  0.738721194417397 8.88920454545455  0.689386562804284 8.83806818181818  C 0.640051931191172 8.78693181818182  0.615384615384615 8.72159090909091  0.615384615384615 8.64204545454546  L 0.615384615384615 7.76420454545455  C 0.615384615384615 7.69034090909091  0.640051931191172 7.62642045454545  0.689386562804284 7.57244318181818  C 0.738721194417397 7.51846590909091  0.797143784485557 7.49147727272727  0.864654333008763 7.49147727272727  L 3.1080817916261 7.49147727272727  L 3.1080817916261 6.76704545454546  L 0.864654333008763 6.76704545454546  C 0.797143784485557 6.76704545454546  0.738721194417397 6.74147727272727  0.689386562804284 6.69034090909091  C 0.640051931191172 6.63920454545455  0.615384615384615 6.57386363636364  0.615384615384615 6.49431818181818  L 0.615384615384615 5.60795454545455  C 0.615384615384615 5.53409090909091  0.640051931191172 5.47017045454545  0.689386562804284 5.41619318181818  C 0.738721194417397 5.36221590909091  0.797143784485557 5.33522727272727  0.864654333008763 5.33522727272727  L 2.53164556962025 5.33522727272727  L 0.0311587147030185 0.409090909090909  C -0.0103862382343395 0.318181818181818  -0.0103862382343395 0.227272727272726  0.0311587147030185 0.136363636363636  C 0.083089905874716 0.0454545454545454  0.155793573515093 0  0.249269717624148 0  L 1.76046738072055 0  C 1.85913664394677 0  1.93443687114573 0.0511363636363638  1.98636806231743 0.153409090909091  L 3.66114897760467 3.77556818181818  C 3.7598182408309 3.99147727272727  3.90522557611165 4.34659090909091  4.09737098344693 4.84090909090909  C 4.14930217461863 4.70454545454545  4.22849724115547 4.51136363636363  4.33495618305745 4.26136363636364  C 4.44141512495943 4.01136363636364  4.51282051282051 3.83806818181818  4.5491723466407 3.74147727272727  L 6.03700097370983 0.161931818181819  C 6.07854592664719 0.0539772727272716  6.15384615384616 0  6.26290165530672 0  L 7.75073028237585 0  C 7.83901330736774 0  7.90912041544953 0.0454545454545454  7.96105160662123 0.136363636363636  C 8.00778967867575 0.21590909090909  8.01038623823434 0.303977272727272  7.96884128529698 0.400568181818181  L 5.53067185978578 5.33522727272727  L 7.20545277507303 5.33522727272727  C 7.27296332359624 5.33522727272727  7.33138591366439 5.36221590909091  7.38072054527751 5.41619318181818  C 7.43005517689062 5.47017045454545  7.45472249269718 5.53409090909091  7.45472249269718 5.60795454545455  L 7.45472249269718 6.49431818181818  C 7.45472249269718 6.57386363636364  7.43005517689062 6.63920454545455  7.38072054527751 6.69034090909091  C 7.33138591366439 6.74147727272727  7.27296332359624 6.76704545454546  7.20545277507303 6.76704545454546  L 4.94644595910419 6.76704545454546  L 4.94644595910419 7.49147727272727  L 7.20545277507303 7.49147727272727  C 7.27296332359624 7.49147727272727  7.33138591366439 7.51846590909091  7.38072054527751 7.57244318181818  C 7.43005517689062 7.62642045454545  7.45472249269718 7.69034090909091  7.45472249269718 7.76420454545455  L 7.45472249269718 8.64204545454546  C 7.45472249269718 8.72159090909091  7.43005517689062 8.78693181818182  7.38072054527751 8.83806818181818  C 7.33138591366439 8.88920454545455  7.27296332359624 8.91477272727273  7.20545277507303 8.91477272727273  L 4.94644595910419 8.91477272727273  L 4.94644595910419 11.7272727272727  C 4.94644595910419 11.8011363636364  4.92177864329763 11.8650568181818  4.87244401168452 11.9190340909091  Z " fill-rule="nonzero" fill="#333333" stroke="none" transform="matrix(1 0 0 1 746 674 )" />
  </g>
</svg>