<?xml version="1.0" encoding="utf-8"?>
<svg version="1.1" xmlns:xlink="http://www.w3.org/1999/xlink" width="30px" height="30px" xmlns="http://www.w3.org/2000/svg">
  <g transform="matrix(1 0 0 1 -385 -150 )">
    <path d="M 400 150  C 408.4 150  415 156.6  415 165  C 415 173.4  408.4 180  400 180  C 391.6 180  385 173.4  385 165  C 385 156.6  391.6 150  400 150  Z " fill-rule="nonzero" fill="#d7d7d7" stroke="none" />
    <path d="M 400 150.5  C 408.12 150.5  414.5 156.88  414.5 165  C 414.5 173.12  408.12 179.5  400 179.5  C 391.88 179.5  385.5 173.12  385.5 165  C 385.5 156.88  391.88 150.5  400 150.5  Z " stroke-width="1" stroke="#797979" fill="none" />
  </g>
</svg>