<?xml version="1.0" encoding="utf-8"?>
<svg version="1.1" xmlns:xlink="http://www.w3.org/1999/xlink" width="81px" height="78px" xmlns="http://www.w3.org/2000/svg">
  <g transform="matrix(1 0 0 1 -423 -558 )">
    <path d="M 36 6  L 36 41.71875  L 61.59375 67.3125  C 58.28125 70.6875  54.4140625 73.3125  49.9921875 75.1875  C 45.5703125 77.0625  40.90625 78  36 78  C 29.46875 78  23.4453125 76.390625  17.9296875 73.171875  C 12.4140625 69.953125  8.046875 65.5859375  4.828125 60.0703125  C 1.609375 54.5546875  0 48.53125  0 42  C 0 35.46875  1.609375 29.4453125  4.828125 23.9296875  C 8.046875 18.4140625  12.4140625 14.046875  17.9296875 10.828125  C 23.4453125 7.60937499999999  29.46875 6  36 6  Z M 70.3125 67.59375  L 44.765625 42  L 81 42  C 81 46.90625  80.0625 51.5703125  78.1875 55.9921875  C 76.3125 60.4140625  73.6875 64.28125  70.3125 67.59375  Z M 73.171875 17.9296875  C 76.390625 23.4453125  78 29.46875  78 36  L 42 36  L 42 0  C 48.53125 0  54.5546875 1.60937500000001  60.0703125 4.828125  C 65.5859375 8.04687499999999  69.953125 12.4140625  73.171875 17.9296875  Z " fill-rule="nonzero" fill="#aaaaaa" stroke="none" transform="matrix(1 0 0 1 423 558 )" />
  </g>
</svg>