<?xml version="1.0" encoding="utf-8"?>
<svg version="1.1" xmlns:xlink="http://www.w3.org/1999/xlink" width="82px" height="62px" xmlns="http://www.w3.org/2000/svg">
  <g transform="matrix(1 0 0 1 -320 -229 )">
    <path d="M 39.5185546875 44.7845052083333  C 40.5061848958333 43.6408420138889  41 42.2078993055556  41 40.4856770833333  C 41 38.7634548611111  40.8798828125 37.1825086805556  40.6396484375 35.7428385416667  C 40.3994140625 34.3031684027778  40.0056966145833 32.9173177083333  39.45849609375 31.5852864583333  C 38.9112955729167 30.2532552083333  38.1038411458333 29.2037760416667  37.0361328125 28.4368489583333  C 35.9684244791667 27.669921875  34.673828125 27.2864583333333  33.15234375 27.2864583333333  C 32.9921875 27.3940972222222  32.591796875 27.6362847222222  31.951171875 28.0130208333333  C 31.310546875 28.3897569444444  30.81005859375 28.6790364583333  30.44970703125 28.880859375  C 30.08935546875 29.0826822916667  29.6155598958333 29.3181423611111  29.0283203125 29.5872395833333  C 28.4410807291667 29.8563368055556  27.8671875 30.0514322916667  27.306640625 30.1725260416667  C 26.74609375 30.2936197916667  26.185546875 30.3541666666667  25.625 30.3541666666667  C 25.064453125 30.3541666666667  24.50390625 30.2936197916667  23.943359375 30.1725260416667  C 23.3828125 30.0514322916667  22.8089192708333 29.8563368055556  22.2216796875 29.5872395833333  C 21.6344401041667 29.3181423611111  21.16064453125 29.0826822916667  20.80029296875 28.880859375  C 20.43994140625 28.6790364583333  19.939453125 28.3897569444444  19.298828125 28.0130208333333  C 18.658203125 27.6362847222222  18.2578125 27.3940972222222  18.09765625 27.2864583333333  C 16.576171875 27.2864583333333  15.2815755208333 27.669921875  14.2138671875 28.4368489583333  C 13.1461588541667 29.2037760416667  12.3387044270833 30.2532552083333  11.79150390625 31.5852864583333  C 11.2443033854167 32.9173177083333  10.8505859375 34.3031684027778  10.6103515625 35.7428385416667  C 10.3701171875 37.1825086805556  10.25 38.7634548611111  10.25 40.4856770833333  C 10.25 42.2078993055556  10.7438151041667 43.6408420138889  11.7314453125 44.7845052083333  C 12.7190755208333 45.9281684027778  13.93359375 46.5  15.375 46  L 35.875 46  C 37.31640625 46.5  38.5309244791667 45.9281684027778  39.5185546875 44.7845052083333  Z M 32.05126953125 25.974609375  C 33.8263346354167 24.1851128472222  34.7138671875 22.0256076388889  34.7138671875 19.49609375  C 34.7138671875 16.9665798611111  33.8263346354167 14.8070746527778  32.05126953125 13.017578125  C 30.2762044270833 11.2280815972222  28.1341145833333 10.3333333333333  25.625 10.3333333333333  C 23.1158854166667 10.3333333333333  20.9737955729167 11.2280815972222  19.19873046875 13.017578125  C 17.4236653645833 14.8070746527778  16.5361328125 16.9665798611111  16.5361328125 19.49609375  C 16.5361328125 22.0256076388889  17.4236653645833 24.1851128472222  19.19873046875 25.974609375  C 20.9737955729167 27.7641059027778  23.1158854166667 28.6588541666667  25.625 28.6588541666667  C 28.1341145833333 28.6588541666667  30.2762044270833 27.7641059027778  32.05126953125 25.974609375  Z M 71.3896484375 40.9700520833333  C 71.6298828125 40.7278645833333  71.75 40.4184027777778  71.75 40.0416666666667  L 71.75 37.4583333333333  C 71.75 37.0815972222222  71.6298828125 36.7721354166667  71.3896484375 36.5299479166667  C 71.1494140625 36.2877604166667  70.8424479166667 36.1666666666667  70.46875 36  L 47.40625 36  C 47.0325520833333 36.1666666666667  46.7255859375 36.2877604166667  46.4853515625 36.5299479166667  C 46.2451171875 36.7721354166667  46.125 37.0815972222222  46.125 37.4583333333333  L 46.125 40.0416666666667  C 46.125 40.4184027777778  46.2451171875 40.7278645833333  46.4853515625 40.9700520833333  C 46.7255859375 41.2122395833333  47.0325520833333 41.3333333333333  47.40625 41  L 70.46875 41  C 70.8424479166667 41.3333333333333  71.1494140625 41.2122395833333  71.3896484375 40.9700520833333  Z M 71.32958984375 30.576171875  C 71.60986328125 30.2936197916667  71.75 29.9505208333333  71.75 29.546875  L 71.75 27.2864583333333  C 71.75 26.8828125  71.60986328125 26.5397135416667  71.32958984375 26.2571614583333  C 71.04931640625 25.974609375  70.708984375 25.8333333333333  70.30859375 26  L 47.56640625 26  C 47.166015625 25.8333333333333  46.82568359375 25.974609375  46.54541015625 26.2571614583333  C 46.26513671875 26.5397135416667  46.125 26.8828125  46.125 27.2864583333333  L 46.125 29.546875  C 46.125 29.9505208333333  46.26513671875 30.2936197916667  46.54541015625 30.576171875  C 46.82568359375 30.8587239583333  47.166015625 31  47.56640625 31  L 70.30859375 31  C 70.708984375 31  71.04931640625 30.8587239583333  71.32958984375 30.576171875  Z M 71.3896484375 20.3033854166667  C 71.6298828125 20.0611979166667  71.75 19.7517361111111  71.75 19.375  L 71.75 16.7916666666667  C 71.75 16.4149305555555  71.6298828125 16.10546875  71.3896484375 15.86328125  C 71.1494140625 15.62109375  70.8424479166667 15.5  70.46875 16  L 47.40625 16  C 47.0325520833333 15.5  46.7255859375 15.62109375  46.4853515625 15.86328125  C 46.2451171875 16.10546875  46.125 16.4149305555555  46.125 16.7916666666667  L 46.125 19.375  C 46.125 19.7517361111111  46.2451171875 20.0611979166667  46.4853515625 20.3033854166667  C 46.7255859375 20.5455729166667  47.0325520833333 20.6666666666667  47.40625 21  L 70.46875 21  C 70.8424479166667 20.6666666666667  71.1494140625 20.5455729166667  71.3896484375 20.3033854166667  Z M 80.1181640625 1.89713541666667  C 81.3727213541667 3.16189236111111  82 4.68229166666667  82 6.45833333333333  L 82 55.5416666666667  C 82 57.3177083333333  81.3727213541667 58.8381076388889  80.1181640625 60.1028645833333  C 78.8636067708333 61.3676215277778  77.35546875 62  75.59375 62  L 61.5 62  L 61.5 58.125  C 61.5 57.7482638888889  61.3798828125 57.4388020833333  61.1396484375 57.1966145833333  C 60.8994140625 56.9544270833333  60.5924479166667 56.8333333333333  60.21875 56.8333333333333  L 57.65625 56.8333333333333  C 57.2825520833333 56.8333333333333  56.9755859375 56.9544270833333  56.7353515625 57.1966145833333  C 56.4951171875 57.4388020833333  56.375 57.7482638888889  56.375 58.125  L 56.375 62  L 25.625 62  L 25.625 58.125  C 25.625 57.7482638888889  25.5048828125 57.4388020833333  25.2646484375 57.1966145833333  C 25.0244140625 56.9544270833333  24.7174479166667 56.8333333333333  24.34375 56.8333333333333  L 21.78125 56.8333333333333  C 21.4075520833333 56.8333333333333  21.1005859375 56.9544270833333  20.8603515625 57.1966145833333  C 20.6201171875 57.4388020833333  20.5 57.7482638888889  20.5 58.125  L 20.5 62  L 6.40625 62  C 4.64453125 62  3.13639322916667 61.3676215277778  1.8818359375 60.1028645833333  C 0.627278645833333 58.8381076388889  0 57.3177083333333  0 55.5416666666667  L 0 6.45833333333333  C 0 4.68229166666667  0.627278645833333 3.16189236111111  1.8818359375 1.89713541666667  C 3.13639322916667 0.632378472222216  4.64453125 0  6.40625 0  L 75.59375 0  C 77.35546875 0  78.8636067708333 0.632378472222216  80.1181640625 1.89713541666667  Z " fill-rule="nonzero" fill="#aaaaaa" stroke="none" transform="matrix(1 0 0 1 320 229 )" />
  </g>
</svg>