<?xml version="1.0" encoding="utf-8"?>
<svg version="1.1" xmlns:xlink="http://www.w3.org/1999/xlink" width="17px" height="28px" xmlns="http://www.w3.org/2000/svg">
  <g transform="matrix(1 0 0 1 -326 -345 )">
    <path d="M 9.75065104166667 26.4359375  C 10.0974392361111 26.0932291666667  10.2708333333333 25.68125  10.2708333333333 25.2  C 10.2708333333333 24.71875  10.0974392361111 24.3067708333333  9.75065104166667 23.9640625  C 9.40386284722222 23.6213541666667  8.98697916666667 23.45  8.5 23.45  C 8.01302083333333 23.45  7.59613715277778 23.6213541666667  7.24934895833333 23.9640625  C 6.90256076388889 24.3067708333333  6.72916666666667 24.71875  6.72916666666667 25.2  C 6.72916666666667 25.68125  6.90256076388889 26.0932291666667  7.24934895833333 26.4359375  C 7.59613715277778 26.7786458333333  8.01302083333333 26.95  8.5 26.95  C 8.98697916666667 26.95  9.40386284722222 26.7786458333333  9.75065104166667 26.4359375  Z M 14.6647135416667 22.1921875  C 14.8049045138889 22.0536458333333  14.875 21.8895833333333  14.875 21.7  L 14.875 6.3  C 14.875 6.11041666666666  14.8049045138889 5.94635416666666  14.6647135416667 5.8078125  C 14.5245225694444 5.66927083333333  14.3585069444444 5.6  14.1666666666667 6  L 2.83333333333333 6  C 2.64149305555556 5.6  2.47547743055556 5.66927083333333  2.33528645833333 5.8078125  C 2.19509548611111 5.94635416666666  2.125 6.11041666666666  2.125 6.3  L 2.125 21.7  C 2.125 21.8895833333333  2.19509548611111 22.0536458333333  2.33528645833333 22.1921875  C 2.47547743055556 22.3307291666667  2.64149305555556 22.4  2.83333333333333 22  L 14.1666666666667 22  C 14.3585069444444 22.4  14.5245225694444 22.3307291666667  14.6647135416667 22.1921875  Z M 10.2708333333333 3.5  C 10.5069444444444 3.5  10.625 3.38333333333333  10.625 3.15  C 10.625 2.91666666666667  10.5069444444444 2.8  10.2708333333333 2.8  L 6.72916666666667 2.8  C 6.49305555555556 2.8  6.375 2.91666666666667  6.375 3.15  C 6.375 3.38333333333333  6.49305555555556 3.5  6.72916666666667 3.5  L 10.2708333333333 3.5  Z M 16.1588541666667 0.831249999999999  C 16.7196180555556 1.38541666666667  17 2.04166666666667  17 2.8  L 17 25.2  C 17 25.9583333333333  16.7196180555556 26.6145833333333  16.1588541666667 27.16875  C 15.5980902777778 27.7229166666667  14.9340277777778 28  14.1666666666667 28  L 2.83333333333333 28  C 2.06597222222222 28  1.40190972222222 27.7229166666667  0.841145833333333 27.16875  C 0.280381944444444 26.6145833333333  0 25.9583333333333  0 25.2  L 0 2.8  C 0 2.04166666666667  0.280381944444444 1.38541666666667  0.841145833333333 0.831249999999999  C 1.40190972222222 0.27708333333333  2.06597222222222 0  2.83333333333333 0  L 14.1666666666667 0  C 14.9340277777778 0  15.5980902777778 0.27708333333333  16.1588541666667 0.831249999999999  Z " fill-rule="nonzero" fill="#aaaaaa" stroke="none" transform="matrix(1 0 0 1 326 345 )" />
  </g>
</svg>