<?xml version="1.0" encoding="utf-8"?>
<svg version="1.1" xmlns:xlink="http://www.w3.org/1999/xlink" width="33px" height="21px" xmlns="http://www.w3.org/2000/svg">
  <g transform="matrix(1 0 0 1 -366 -352 )">
    <path d="M 31.1584821428571 8.06889204545455  C 31.8582589285714 7.68110795454545  32.4720982142857 7.24857954545455  33 6.77130681818182  L 33 18.6136363636364  C 33 19.2698863636364  32.7114955357143 19.8316761363636  32.1344866071429 20.2990056818182  C 31.5574776785714 20.7663352272727  30.8638392857143 21  30.0535714285714 21  L 2.94642857142857 21  C 2.13616071428571 21  1.44252232142857 20.7663352272727  0.865513392857143 20.2990056818182  C 0.288504464285714 19.8316761363636  0 19.2698863636364  0 18.6136363636364  L 0 6.77130681818182  C 0.540178571428572 7.25852272727273  1.16015625 7.69105113636363  1.85993303571429 8.06889204545455  C 6.30412946428572 10.5149147727273  9.35491071428571 12.2301136363636  11.0122767857143 13.2144886363636  C 11.7120535714286 13.6321022727273  12.2798549107143 13.9577414772727  12.7156808035714 14.19140625  C 13.1515066964286 14.4250710227273  13.7315848214286 14.6637073863636  14.4559151785714 14.9073153409091  C 15.1802455357143 15.1509232954545  15.85546875 15.2727272727273  16.4815848214286 15.2727272727273  L 16.5 15.2727272727273  L 16.5184151785714 15.2727272727273  C 17.14453125 15.2727272727273  17.8197544642857 15.1509232954545  18.5440848214286 14.9073153409091  C 19.2684151785714 14.6637073863636  19.8484933035714 14.4250710227273  20.2843191964286 14.19140625  C 20.7201450892857 13.9577414772727  21.2879464285714 13.6321022727273  21.9877232142857 13.2144886363636  C 24.0747767857143 11.9914772727273  27.1316964285714 10.2762784090909  31.1584821428571 8.06889204545455  Z M 32.1252790178571 0.700994318181817  C 32.7084263392857 1.16832386363636  33 1.73011363636364  33 2.38636363636364  C 33 3.171875  32.69921875 3.92258522727273  32.09765625 4.63849431818182  C 31.49609375 5.35440340909091  30.7472098214286 5.96590909090909  29.8510044642857 6.47301136363636  C 25.2349330357143 9.06818181818182  22.3621651785714 10.6839488636364  21.2327008928571 11.3203125  C 21.1099330357143 11.3899147727273  20.8490513392857 11.5415482954545  20.4500558035714 11.7752130681818  C 20.0510602678571 12.0088778409091  19.7195870535714 12.1977982954545  19.4556361607143 12.3419744318182  C 19.1916852678571 12.4861505681818  18.8724888392857 12.6477272727273  18.498046875 12.8267045454545  C 18.1236049107143 13.0056818181818  17.7706473214286 13.1399147727273  17.4391741071429 13.2294034090909  C 17.1077008928571 13.3188920454545  16.80078125 13.3636363636364  16.5184151785714 13.3636363636364  L 16.5 13.3636363636364  L 16.4815848214286 13.3636363636364  C 16.19921875 13.3636363636364  15.8922991071429 13.3188920454545  15.5608258928571 13.2294034090909  C 15.2293526785714 13.1399147727273  14.8763950892857 13.0056818181818  14.501953125 12.8267045454545  C 14.1275111607143 12.6477272727273  13.8083147321429 12.4861505681818  13.5443638392857 12.3419744318182  C 13.2804129464286 12.1977982954545  12.9489397321429 12.0088778409091  12.5499441964286 11.7752130681818  C 12.1509486607143 11.5415482954545  11.8900669642857 11.3899147727273  11.7672991071429 11.3203125  C 10.6501116071429 10.6839488636364  9.04185267857143 9.77663352272727  6.94252232142857 8.59836647727273  C 4.84319196428571 7.42009943181818  3.58482142857143 6.71164772727272  3.16741071428571 6.47301136363636  C 2.40625 6.05539772727272  1.68805803571429 5.48117897727273  1.01283482142857 4.75035511363636  C 0.337611607142857 4.01953125  0 3.34090909090909  0 2.71448863636364  C 0 1.93892045454545  0.254743303571429 1.29261363636363  0.764229910714286 0.775568181818183  C 1.27371651785714 0.258522727272725  2.00111607142857 0  2.94642857142857 0  L 30.0535714285714 0  C 30.8515625 0  31.5421316964286 0.23366477272727  32.1252790178571 0.700994318181817  Z " fill-rule="nonzero" fill="#aaaaaa" stroke="none" transform="matrix(1 0 0 1 366 352 )" />
  </g>
</svg>