<?xml version="1.0" encoding="utf-8"?>
<svg version="1.1" xmlns:xlink="http://www.w3.org/1999/xlink" width="21px" height="19px" xmlns="http://www.w3.org/2000/svg">
  <g transform="matrix(1 0 0 1 -1000 -241 )">
    <path d="M 16.365234375 10.8483072916667  C 16.5384114583333 10.6916232638889  16.625 10.5060763888889  16.625 10.2916666666667  L 16.625 8.70833333333333  C 16.625 8.49392361111111  16.5384114583333 8.30837673611111  16.365234375 8.15169270833333  C 16.1920572916667 7.99500868055556  15.9869791666667 7.91666666666667  15.75 7.91666666666667  L 12.25 7.91666666666667  L 12.25 4.75  C 12.25 4.53559027777778  12.1634114583333 4.35004340277778  11.990234375 4.193359375  C 11.8170572916667 4.03667534722222  11.6119791666667 3.95833333333333  11.375 3.95833333333333  L 9.625 3.95833333333333  C 9.38802083333333 3.95833333333333  9.18294270833333 4.03667534722222  9.009765625 4.193359375  C 8.83658854166667 4.35004340277778  8.75 4.53559027777778  8.75 4.75  L 8.75 7.91666666666667  L 5.25 7.91666666666667  C 5.01302083333333 7.91666666666667  4.80794270833333 7.99500868055556  4.634765625 8.15169270833333  C 4.46158854166667 8.30837673611111  4.375 8.49392361111111  4.375 8.70833333333333  L 4.375 10.2916666666667  C 4.375 10.5060763888889  4.46158854166667 10.6916232638889  4.634765625 10.8483072916667  C 4.80794270833333 11.0049913194444  5.01302083333333 11.0833333333333  5.25 11.0833333333333  L 8.75 11.0833333333333  L 8.75 14.25  C 8.75 14.4644097222222  8.83658854166667 14.6499565972222  9.009765625 14.806640625  C 9.18294270833333 14.9633246527778  9.38802083333333 15.0416666666667  9.625 15.0416666666667  L 11.375 15.0416666666667  C 11.6119791666667 15.0416666666667  11.8170572916667 14.9633246527778  11.990234375 14.806640625  C 12.1634114583333 14.6499565972222  12.25 14.4644097222222  12.25 14.25  L 12.25 11.0833333333333  L 15.75 11.0833333333333  C 15.9869791666667 11.0833333333333  16.1920572916667 11.0049913194444  16.365234375 10.8483072916667  Z M 19.591796875 4.7314453125  C 20.5305989583333 6.18695746527778  21 7.77647569444444  21 9.5  C 21 11.2235243055556  20.5305989583333 12.8130425347222  19.591796875 14.2685546875  C 18.6529947916667 15.7240668402778  17.3792317708333 16.8765190972222  15.7705078125 17.7259114583333  C 14.1617838541667 18.5753038194444  12.4049479166667 19  10.5 19  C 8.59505208333333 19  6.83821614583333 18.5753038194444  5.2294921875 17.7259114583333  C 3.62076822916667 16.8765190972222  2.34700520833333 15.7240668402778  1.408203125 14.2685546875  C 0.469401041666667 12.8130425347222  0 11.2235243055556  0 9.5  C 0 7.77647569444444  0.469401041666667 6.18695746527778  1.408203125 4.7314453125  C 2.34700520833333 3.27593315972222  3.62076822916667 2.12348090277778  5.2294921875 1.27408854166667  C 6.83821614583333 0.424696180555554  8.59505208333333 0  10.5 0  C 12.4049479166667 0  14.1617838541667 0.424696180555554  15.7705078125 1.27408854166667  C 17.3792317708333 2.12348090277778  18.6529947916667 3.27593315972222  19.591796875 4.7314453125  Z " fill-rule="nonzero" fill="#999999" stroke="none" transform="matrix(1 0 0 1 1000 241 )" />
  </g>
</svg>