<?xml version="1.0" encoding="utf-8"?>
<svg version="1.1" xmlns:xlink="http://www.w3.org/1999/xlink" width="3px" height="3px" xmlns="http://www.w3.org/2000/svg">
  <g transform="matrix(1 0 0 1 -461 -408 )">
    <path d="M 2.9443359375 2.43229166666667  C 2.9814453125 2.49826388888889  3 2.57638888888889  3 2.66666666666667  C 3 2.75694444444444  2.9814453125 2.83506944444444  2.9443359375 2.90104166666667  C 2.9072265625 2.96701388888889  2.86328125 3  2.8125 3  L 0.1875 3  C 0.13671875 3  0.0927734375 2.96701388888889  0.0556640625 2.90104166666667  C 0.0185546875 2.83506944444444  0 2.75694444444444  0 2.66666666666667  C 0 2.57638888888889  0.0185546875 2.49826388888889  0.0556640625 2.43229166666667  L 1.3681640625 0.0989583333333335  C 1.4052734375 0.0329861111111107  1.44921875 0  1.5 0  C 1.55078125 0  1.5947265625 0.0329861111111107  1.6318359375 0.0989583333333335  L 2.9443359375 2.43229166666667  Z " fill-rule="nonzero" fill="#333333" stroke="none" transform="matrix(1 0 0 1 461 408 )" />
  </g>
</svg>