<?xml version="1.0" encoding="utf-8"?>
<svg version="1.1" xmlns:xlink="http://www.w3.org/1999/xlink" width="3px" height="3px" xmlns="http://www.w3.org/2000/svg">
  <g transform="matrix(1 0 0 1 -461 -415 )">
    <path d="M 2.9443359375 0.0989583333333335  C 2.9814453125 0.164930555555555  3 0.243055555555555  3 0.333333333333333  C 3 0.423611111111111  2.9814453125 0.501736111111111  2.9443359375 0.567708333333333  L 1.6318359375 2.90104166666667  C 1.5947265625 2.96701388888889  1.55078125 3  1.5 3  C 1.44921875 3  1.4052734375 2.96701388888889  1.3681640625 2.90104166666667  L 0.0556640625 0.567708333333333  C 0.0185546875 0.501736111111111  0 0.423611111111111  0 0.333333333333333  C 0 0.243055555555555  0.0185546875 0.164930555555555  0.0556640625 0.0989583333333335  C 0.0927734375 0.0329861111111107  0.13671875 0  0.1875 0  L 2.8125 0  C 2.86328125 0  2.9072265625 0.0329861111111107  2.9443359375 0.0989583333333335  Z " fill-rule="nonzero" fill="#333333" stroke="none" transform="matrix(1 0 0 1 461 415 )" />
  </g>
</svg>