<?xml version="1.0" encoding="utf-8"?>
<svg version="1.1" xmlns:xlink="http://www.w3.org/1999/xlink" width="14px" height="6px" xmlns="http://www.w3.org/2000/svg">
  <g transform="matrix(1 0 0 1 -1186 -42 )">
    <path d="M 13.8597194388778 0.618556701030928  C 13.9532398129593 0.687285223367696  14 0.766323024054982  14 0.855670103092784  C 14 0.945017182130584  13.9532398129593 1.02405498281787  13.8597194388778 1.09278350515464  L 7.32264529058116 5.89690721649484  C 7.22912491649967 5.96563573883161  7.12157648630595 6  7 6  C 6.87842351369406 6  6.77087508350033 5.96563573883161  6.67735470941884 5.89690721649484  L 0.140280561122244 1.09278350515464  C 0.0467601870407483 1.02405498281787  0 0.945017182130584  0 0.855670103092784  C 0 0.766323024054982  0.0467601870407483 0.687285223367696  0.140280561122244 0.618556701030928  L 0.841683366733467 0.103092783505155  C 0.935203740814964 0.0343642611683841  1.04275217100868 0  1.16432865731463 0  C 1.28590514362057 0  1.3934535738143 0.0343642611683841  1.48697394789579 0.103092783505155  L 7 4.15463917525773  L 12.5130260521042 0.103092783505155  C 12.6065464261857 0.0343642611683841  12.7140948563794 0  12.8356713426854 0  C 12.9572478289913 0  13.064796259185 0.0343642611683841  13.1583166332665 0.103092783505155  L 13.8597194388778 0.618556701030928  Z " fill-rule="nonzero" fill="#000000" stroke="none" transform="matrix(1 0 0 1 1186 42 )" />
  </g>
</svg>